<?xml version="1.0" standalone="no"?>
<!DOCTYPE svg PUBLIC "-//W3C//DTD SVG 20010904//EN"
 "http://www.w3.org/TR/2001/REC-SVG-20010904/DTD/svg10.dtd">
<svg version="1.0" xmlns="http://www.w3.org/2000/svg"
 width="400.000000pt" height="400.000000pt" viewBox="0 0 400.000000 400.000000"
 preserveAspectRatio="xMidYMid meet">
<metadata>
Created by potrace 1.11, written by Peter Selinger 2001-2013
</metadata>
<g transform="translate(0.000000,400.000000) scale(0.100000,-0.100000)"
fill="#000000" stroke="none">
<path d="M853 3467 c-3 -5 -3 -10 -1 -12 3 -3 43 -11 71 -14 4 -1 7 -100 7
-220 0 -234 1 -231 -50 -231 -10 0 -20 -6 -23 -13 -6 -17 168 -16 185 1 9 9 5
12 -20 12 -21 0 -35 6 -42 19 -6 12 -10 91 -9 193 l0 173 102 -207 c90 -183
126 -237 128 -195 0 6 45 102 99 212 l99 200 0 -191 c1 -205 1 -204 -50 -204
-10 0 -19 -6 -19 -12 0 -10 29 -13 110 -13 81 0 110 3 110 13 0 7 -13 12 -29
12 -17 0 -33 6 -38 13 -9 15 -11 414 -2 429 4 6 18 12 31 14 12 1 26 3 31 3 4
1 7 7 7 14 0 9 -21 12 -75 10 l-74 -1 -99 -197 -99 -197 -20 34 c-11 19 -57
108 -103 199 l-83 164 -69 0 c-39 0 -72 -4 -75 -8z"/>
<path d="M1829 3448 c-7 -18 -27 -64 -45 -103 -17 -38 -41 -92 -54 -120 -75
-168 -103 -217 -132 -227 -56 -20 -32 -33 62 -33 65 0 90 3 90 13 0 6 -11 12
-24 12 -42 0 -48 21 -20 80 14 30 29 57 34 60 16 10 199 5 209 -5 5 -6 18 -35
29 -67 23 -60 19 -68 -29 -68 -10 0 -19 -6 -19 -13 0 -11 22 -14 98 -13 91 1
138 15 89 26 -27 7 -50 51 -193 378 -53 121 -72 137 -95 80z m64 -180 c21 -47
37 -90 37 -95 0 -9 -156 -11 -165 -2 -3 3 14 49 37 102 23 53 45 93 49 89 3
-4 22 -46 42 -94z"/>
<path d="M2410 3463 c0 -7 8 -13 18 -13 9 0 23 -4 31 -9 12 -8 3 -27 -44 -98
-92 -139 -82 -135 -132 -56 -52 80 -86 143 -81 149 2 2 18 4 36 6 18 1 32 8
32 15 0 10 -28 13 -116 13 -86 0 -115 -3 -112 -12 3 -7 18 -16 35 -20 24 -6
46 -31 105 -115 42 -60 80 -118 87 -130 6 -12 11 -60 11 -108 0 -80 -2 -86
-22 -94 -13 -5 -29 -6 -35 -4 -7 3 -13 -1 -13 -9 0 -12 19 -15 105 -14 63 1
104 5 102 11 -1 5 -8 10 -15 12 -40 5 -42 11 -42 103 0 102 -6 88 107 247 57
79 80 103 103 108 28 6 50 24 33 26 -4 1 -50 2 -100 3 -71 2 -93 -1 -93 -11z"/>
<path d="M2775 3470 c-181 -43 -258 -263 -146 -417 90 -125 322 -131 440 -12
64 65 90 165 68 264 -21 97 -123 165 -254 170 -43 1 -91 -1 -108 -5z m182 -49
c164 -83 132 -400 -42 -426 -148 -23 -245 69 -251 239 -4 107 22 158 100 198
42 22 141 16 193 -11z"/>
<path d="M852 2795 c-56 -13 -128 -52 -156 -86 -60 -72 -76 -192 -36 -275 52
-106 148 -162 280 -162 74 0 157 22 184 48 20 19 13 48 -7 32 -26 -20 -105
-38 -161 -35 -72 2 -154 40 -189 86 -53 70 -62 182 -21 265 21 43 34 56 79 77
60 30 137 36 198 16 43 -14 60 -33 61 -68 1 -27 25 -46 27 -21 1 14 3 30 13
76 l7 30 -68 12 c-89 17 -151 18 -211 5z"/>
<path d="M1196 2793 c-3 -8 3 -14 14 -14 37 -3 41 -4 50 -19 5 -8 10 -106 10
-217 0 -191 -1 -204 -20 -223 -25 -25 -18 -41 13 -34 12 3 90 6 174 8 84 1
154 4 156 7 8 9 15 119 8 123 -14 9 -29 -9 -38 -44 -11 -42 -28 -48 -140 -49
l-83 -1 0 214 c0 178 3 216 15 226 8 7 15 10 15 7 0 -10 38 7 42 18 5 16 -210
14 -216 -2z"/>
<path d="M3100 2800 c-99 -17 -159 -57 -208 -139 -36 -62 -38 -165 -4 -231 58
-110 138 -155 277 -155 121 1 195 28 195 71 0 12 -4 13 -22 3 -36 -19 -119
-36 -161 -33 -148 13 -228 97 -230 240 -1 63 2 77 28 120 52 83 135 112 248
89 66 -13 87 -32 87 -78 0 -42 23 -28 31 19 4 21 9 45 11 53 6 27 -166 55
-252 41z"/>
<path d="M1650 2785 c0 -9 9 -15 24 -15 13 0 28 -6 33 -12 12 -16 12 -417 0
-435 -5 -7 -19 -13 -33 -13 -13 0 -24 -6 -24 -13 0 -9 28 -12 110 -12 80 0
110 3 110 12 0 6 -15 13 -32 15 l-33 3 -1 223 c-1 122 2 224 6 227 5 3 20 6
34 7 14 1 26 8 26 15 0 10 -27 13 -110 13 -91 0 -110 -3 -110 -15z"/>
<path d="M2390 2783 c0 -7 8 -13 18 -13 38 0 42 -18 42 -209 l0 -185 -31 34
c-17 19 -43 49 -58 65 -51 56 -226 263 -244 289 -17 24 -24 26 -92 26 -41 0
-75 -4 -75 -8 0 -5 15 -15 33 -23 l32 -14 1 -205 c1 -126 -2 -210 -8 -217 -6
-7 -21 -13 -34 -13 -13 0 -24 -4 -24 -10 0 -13 -2 -12 103 -14 64 -1 87 2 87
11 0 7 -11 13 -25 13 -17 0 -28 7 -34 23 -5 12 -9 103 -10 202 -2 157 0 178
12 165 21 -22 238 -280 265 -315 48 -62 104 -115 123 -115 18 0 19 10 19 239
0 248 1 254 43 262 10 2 17 8 15 14 -5 16 -158 14 -158 -2z"/>
<path d="M2602 2788 c2 -6 15 -13 28 -15 14 -2 29 -8 35 -14 15 -15 16 -427 1
-436 -6 -4 -22 -9 -36 -11 -29 -4 -34 -8 -27 -19 9 -14 220 -10 224 5 3 8 -6
12 -26 12 -19 0 -33 7 -39 18 -6 13 -9 396 -3 435 0 4 10 7 20 7 26 0 51 10
51 21 0 5 -52 9 -116 9 -83 0 -115 -3 -112 -12z"/>
<path d="M1055 2030 c-13 -20 -3 -527 11 -596 35 -166 143 -302 304 -381 l85
-41 37 19 c21 11 38 18 39 17 0 -2 2 -14 5 -28 26 -150 125 -300 258 -394 65
-46 184 -106 210 -106 26 0 125 47 196 95 84 56 165 142 207 220 34 65 75 199
65 211 -7 7 0 5 58 -19 50 -20 238 96 309 191 96 127 113 207 113 527 0 137
-1 260 -1 273 l-1 22 -400 0 -401 0 2 -272 c1 -183 6 -293 14 -335 19 -88 65
-178 127 -247 l53 -60 6 35 c4 24 0 40 -12 54 -27 31 -65 115 -78 171 -12 52
-21 253 -11 256 3 0 35 2 73 3 l68 2 -1 -306 c-1 -171 -6 -326 -11 -351 -6
-25 -12 -53 -14 -62 -2 -10 -18 -48 -36 -85 -42 -89 -147 -195 -248 -251 l-75
-41 -49 25 c-193 98 -310 260 -333 461 l-7 54 58 52 c129 114 183 249 185 463
l0 41 108 1 c59 0 115 1 125 1 13 1 17 10 17 46 0 42 -2 45 -27 46 -32 1 -519
1 -545 0 -16 -1 -17 -25 -16 -301 0 -165 2 -300 5 -300 3 0 24 16 48 36 l44
36 0 81 c0 45 0 142 0 215 l1 132 70 0 70 0 1 -42 c5 -209 -25 -315 -115 -410
-45 -48 -132 -109 -173 -122 -58 -18 -229 117 -276 217 -40 86 -47 143 -47
407 l0 250 305 0 c237 0 305 -3 306 -12 0 -7 1 -42 2 -78 l2 -65 45 0 45 0 0
125 0 125 -397 3 c-256 1 -399 -1 -403 -8z m1806 -107 c2 -50 -2 -471 -5 -493
-20 -148 -108 -273 -242 -342 -61 -31 -65 -32 -91 -18 l-28 16 -3 327 c-2 251
-5 327 -15 328 -6 0 -60 1 -119 1 -60 0 -108 3 -109 6 -1 4 -2 49 -3 100 l-1
92 308 0 c285 0 307 -1 308 -17z"/>
</g>
</svg>
